<svg width="512" height="512" viewBox="0 0 512 512" fill="none" xmlns="http://www.w3.org/2000/svg">
<rect width="512" height="512" fill="black"/>
<path d="M335.792 230.167H370.167V245.792H348.552V306.99C348.552 315.149 346.035 321.747 341 326.781C335.965 331.816 329.368 334.333 321.208 334.333C313.049 334.333 306.451 331.816 301.417 326.781C296.382 321.747 293.865 315.149 293.865 306.99C293.865 298.83 296.382 292.233 301.417 287.198C306.451 282.163 313.049 279.646 321.208 279.646C324.16 279.646 326.851 279.993 329.281 280.688C331.712 281.382 333.882 282.424 335.792 283.813V230.167ZM161.833 334.333V309.854C161.833 304.299 163.309 298.96 166.26 293.839C169.212 288.717 173.639 284.854 179.542 282.25C192.562 276.521 204.141 272.484 214.279 270.141C224.416 267.797 234.712 266.625 245.167 266.625C253.326 266.625 261.182 267.276 268.734 268.578C276.286 269.88 284.142 272.007 292.302 274.958C290.219 276.868 288.388 278.834 286.81 280.857C285.232 282.879 283.851 285.08 282.667 287.458C277.111 285.722 271.208 284.42 264.958 283.552C258.708 282.684 252.111 282.25 245.167 282.25C235.097 282.25 225.635 283.205 216.781 285.115C207.927 287.024 197.597 290.757 185.792 296.313C183.014 297.701 180.931 299.655 179.542 302.172C178.153 304.689 177.458 307.25 177.458 309.854V318.708H279.021C279.715 322.007 280.714 324.958 282.016 327.563C283.318 330.167 284.924 332.424 286.833 334.333H161.833ZM245.167 250.74C233.708 250.74 224.333 247.094 217.042 239.802C209.75 232.51 206.104 223.135 206.104 211.677C206.104 200.219 209.75 190.844 217.042 183.552C224.333 176.26 233.708 172.615 245.167 172.615C256.625 172.615 266 176.26 273.292 183.552C280.583 190.844 284.229 200.219 284.229 211.677C284.229 223.135 280.583 232.51 273.292 239.802C266 247.094 256.625 250.74 245.167 250.74ZM245.167 235.115C251.938 235.115 257.536 232.901 261.964 228.474C266.391 224.047 268.604 218.448 268.604 211.677C268.604 204.906 266.391 199.307 261.964 194.88C257.536 190.453 251.938 188.24 245.167 188.24C238.396 188.24 232.797 190.453 228.37 194.88C223.943 199.307 221.729 204.906 221.729 211.677C221.729 218.448 223.943 224.047 228.37 228.474C232.797 232.901 238.396 235.115 245.167 235.115Z" fill="#E8EAED"/>
</svg>
